<svg width="24" height="24" viewBox="0 0 24 24" fill="none" xmlns="http://www.w3.org/2000/svg">
<path d="M22.4531 12.0469C22.4531 12.6562 21.9844 13.1719 21.3281 13.1719H5.39062L11.625 19.0781C12.0938 19.5 12.0938 20.25 11.6719 20.6719C11.25 21.1406 10.5469 21.1406 10.0781 20.7188L1.82812 12.8438C1.59375 12.6094 1.5 12.3281 1.5 12.0469C1.5 11.7188 1.59375 11.4375 1.82812 11.2031L10.0781 3.32812C10.5469 2.90625 11.25 2.90625 11.6719 3.375C12.0938 3.79688 12.0938 4.54688 11.625 4.96875L5.39062 10.9219H21.3281C21.9844 10.9219 22.4531 11.3906 22.4531 12.0469Z" fill="#282828"/>
</svg>
