<svg width="31" height="24" viewBox="0 0 31 24" fill="none" xmlns="http://www.w3.org/2000/svg">
<path d="M9.90247 16.5C13.1837 16.5 15.9025 19.2188 15.9025 22.5C15.9025 23.3438 15.1993 24 14.4025 24H2.40247C1.55872 24 0.902466 23.3438 0.902466 22.5C0.902466 19.2188 3.57434 16.5 6.90247 16.5H9.90247ZM3.19934 21.75H13.5587C13.1837 20.0625 11.6837 18.75 9.90247 18.75H6.90247C5.07434 18.75 3.57434 20.0625 3.19934 21.75ZM8.40247 15C5.87122 15 3.90247 13.0312 3.90247 10.5C3.90247 8.01562 5.87122 6 8.40247 6C10.8868 6 12.9025 8.01562 12.9025 10.5C12.9025 13.0312 10.8868 15 8.40247 15ZM8.40247 8.25C7.13684 8.25 6.15247 9.28125 6.15247 10.5C6.15247 11.7656 7.13684 12.75 8.40247 12.75C9.62122 12.75 10.6525 11.7656 10.6525 10.5C10.6525 9.28125 9.62122 8.25 8.40247 8.25ZM28.2775 0C29.6837 0 30.9025 1.21875 30.9025 2.625V16.875C30.9025 18.3281 29.6837 19.5 28.2775 19.5H17.4025C16.7462 19.5 16.2775 19.0312 16.2775 18.375C16.2775 17.7656 16.7462 17.25 17.4025 17.25H18.9025V15.75C18.9025 14.9531 19.5587 14.25 20.4025 14.25H24.1525C24.9493 14.25 25.6525 14.9531 25.6525 15.75V17.25H28.2775C28.465 17.25 28.6525 17.1094 28.6525 16.875V2.625C28.6525 2.4375 28.465 2.25 28.2775 2.25H11.0275C10.7931 2.25 10.6525 2.4375 10.6525 2.625V3.75C10.6525 4.40625 10.1368 4.875 9.52747 4.875C8.87122 4.875 8.40247 4.40625 8.40247 3.75V2.625C8.40247 1.21875 9.57434 0 11.0275 0H28.2775Z" fill="#F11284"/>
</svg>
