<svg width="21" height="16" viewBox="0 0 21 16" fill="none" xmlns="http://www.w3.org/2000/svg">
<path d="M14 5.5C14 8.5625 11.0625 11 7.5 11C6.90625 11 6.34375 10.9375 5.78125 10.8125C4.84375 11.4062 3.46875 12 1.75 12C1.4375 12 1.15625 11.8438 1.0625 11.5312C0.9375 11.25 0.96875 10.9375 1.1875 10.6875C1.21875 10.6875 1.90625 9.9375 2.40625 8.9375C1.53125 8 1 6.8125 1 5.5C1 2.46875 3.90625 0 7.5 0C11.0625 0 14 2.46875 14 5.5ZM7.5 9.5C10.25 9.5 12.5 7.71875 12.5 5.5C12.5 3.3125 10.25 1.5 7.5 1.5C4.71875 1.5 2.5 3.3125 2.5 5.5C2.5 6.625 3.03125 7.4375 3.5 7.90625L4.25 8.6875L3.75 9.65625C3.625 9.84375 3.5 10.0625 3.375 10.2812C3.9375 10.125 4.46875 9.875 5 9.53125L5.53125 9.21875L6.125 9.34375C6.59375 9.46875 7.03125 9.5 7.5 9.5ZM19.7188 13.875C20.2188 14.875 20.9062 15.5938 20.9062 15.625C21 15.6875 21 15.7812 20.9688 15.875C20.9375 15.9688 20.8438 16 20.75 16C19.625 16 18.6562 15.7188 17.875 15.3438C17.0312 15.75 16.0312 16 15 16C12.1562 16 9.8125 14.25 9.15625 11.8438C12.5 11.1875 15 8.59375 15 5.5C15 5.34375 14.9688 5.1875 14.9688 5.03125C14.9688 5.03125 14.9688 5 15 5C18.3125 5 21 7.46875 21 10.5C21 11.7812 20.5 12.9375 19.7188 13.875Z" fill="black"/>
</svg>
