<svg width="16" height="16" viewBox="0 0 16 16" fill="none" xmlns="http://www.w3.org/2000/svg">
<path d="M8 0.5C12.125 0.5 15.5 3.875 15.5 8C15.5 12.1562 12.125 15.5 8 15.5C3.84375 15.5 0.5 12.1562 0.5 8C0.5 3.875 3.84375 0.5 8 0.5ZM8 14C11.2812 14 14 11.3125 14 8C14 4.71875 11.2812 2 8 2C4.6875 2 2 4.71875 2 8C2 11.3125 4.6875 14 8 14ZM8 9.5C7.5625 9.5 7.25 9.1875 7.25 8.75V4.75C7.25 4.34375 7.5625 4 8 4C8.40625 4 8.75 4.34375 8.75 4.75V8.75C8.75 9.1875 8.40625 9.5 8 9.5ZM8 10.5625C8.53125 10.5625 8.96875 11 8.96875 11.5312C8.96875 12.0625 8.53125 12.5 8 12.5C7.4375 12.5 7 12.0625 7 11.5312C7 11 7.4375 10.5625 8 10.5625Z" fill="#282828"/>
</svg>