<svg width="26" height="24" viewBox="0 0 26 24" fill="none" xmlns="http://www.w3.org/2000/svg">
<path d="M20.875 24C19.5156 24 18.25 23.3906 17.3594 22.2656C16.0938 20.5781 16.1875 18.375 17.6406 16.7344L22.2812 11.2969C22.8438 10.6875 22.8438 9.79688 22.3281 9.23438C22.0469 8.95312 21.6719 8.8125 21.2969 8.8125C20.875 8.8125 20.5469 8.95312 20.2656 9.23438L8.82812 21.375C8.125 22.0781 7.09375 22.5 6.15625 22.4531C5.17188 22.4531 4.23438 22.0312 3.53125 21.3281C2.17188 19.875 2.17188 17.625 3.57812 16.2188L13.6562 5.85938C14.4062 5.0625 14.3594 3.75 13.5625 2.90625C13.1406 2.48438 12.5312 2.25 11.9688 2.29688C11.3594 2.29688 10.7969 2.53125 10.375 3L2.875 10.3594C2.45312 10.7812 1.75 10.7812 1.28125 10.3594C0.859375 9.89062 0.859375 9.1875 1.32812 8.76562L8.78125 1.40625C9.57812 0.5625 10.7031 0.046875 11.9219 0.046875C13.0938 0 14.2656 0.46875 15.1562 1.3125C16.7969 3 16.8906 5.67188 15.2969 7.40625L5.17188 17.7656C4.65625 18.3281 4.65625 19.2188 5.17188 19.7812C5.45312 20.0625 5.78125 20.2031 6.20312 20.2031C6.57812 20.2031 6.95312 20.0625 7.23438 19.7812L18.625 7.6875C19.375 6.9375 20.3594 6.51562 21.2969 6.5625C22.3281 6.5625 23.2656 6.98438 23.9688 7.6875C25.3281 9.14062 25.3281 11.3438 23.9688 12.7969L19.3281 18.2344C18.2031 19.4531 18.9062 20.5781 19.1406 20.9062C19.7031 21.6094 20.7344 22.0781 21.8125 21.5625L23.3594 20.8125C23.9219 20.5312 24.625 20.8125 24.8594 21.375C25.1406 21.9375 24.9062 22.5938 24.3438 22.875L22.7969 23.5781C22.1875 23.8594 21.5312 24 20.875 24Z" fill="#E32458"/>
</svg>
