<svg width="28" height="24" viewBox="0 0 28 24" fill="none" xmlns="http://www.w3.org/2000/svg">
<path d="M10.2031 10.125C10.2031 9.09375 11.0469 8.25 12.0781 8.25H15.8281C16.9062 8.25 17.7031 9.09375 17.7031 10.125V13.875C17.7031 14.9531 16.9062 15.75 15.8281 15.75H12.0781C11.0469 15.75 10.2031 14.9531 10.2031 13.875V10.125ZM12.4531 10.5V13.5H15.4531V10.5H12.4531ZM27.4531 11.625C27.4531 12.375 26.8438 12.75 26.3281 12.75C26.0938 12.75 25.8125 12.7031 25.625 12.5156L24.4531 11.5312V21C24.4531 22.6875 23.1406 24 21.4531 24H6.5C4.8125 24 3.5 22.6875 3.5 21V11.5312L2.32812 12.5156C2.14062 12.7031 1.85938 12.75 1.625 12.75C1.10938 12.75 0.5 12.4219 0.5 11.625C0.5 11.3438 0.59375 11.0156 0.875 10.7812L13.25 0.28125C13.4375 0.09375 13.7188 0 13.9531 0C14.2344 0 14.5156 0.09375 14.7031 0.28125L22.2031 6.65625V2.625C22.2031 2.01562 22.7188 1.5 23.3281 1.5C23.9844 1.5 24.4531 2.01562 24.4531 2.625V8.57812L27.0781 10.7812C27.3594 11.0156 27.4531 11.3438 27.4531 11.625ZM22.2031 21V9.60938L13.9531 2.625L5.70312 9.65625C5.70312 9.70312 5.75 9.75 5.75 9.75V21C5.75 21.4219 6.07812 21.75 6.5 21.75H21.4531C21.875 21.75 22.2031 21.4219 22.2031 21Z" fill="#F11284"/>
</svg>
