<svg width="33" height="32" viewBox="0 0 33 32" fill="none" xmlns="http://www.w3.org/2000/svg">
<path d="M30.4025 15.625C30.4025 16.375 29.7462 16.75 29.2306 16.75C28.9962 16.75 28.715 16.7031 28.5275 16.5156L27.3556 15.5312V26.125C27.3556 27.2031 26.5587 28 25.4806 28H20.9806C19.9493 28 19.1525 27.2031 19.1525 26.125V20.5H14.6525V26.125C14.6525 27.2031 13.8087 28 12.7775 28H8.27747C7.19934 28 6.40247 27.2031 6.40247 26.125V15.5312L5.23059 16.5156C5.04309 16.7031 4.76184 16.75 4.52747 16.75C4.01184 16.75 3.40247 16.4219 3.40247 15.625C3.40247 15.3438 3.49622 15.0156 3.77747 14.7812L16.1525 4.28125C16.34 4.09375 16.6212 4 16.9025 4C17.1368 4 17.4181 4.09375 17.6056 4.28125L29.9806 14.7812C30.2618 15.0156 30.4025 15.3438 30.4025 15.625ZM25.1056 25.75V13.6094L16.9025 6.625L8.60559 13.6562C8.60559 13.7031 8.65247 13.75 8.65247 13.75V25.75H12.4025V20.125C12.4025 19.0938 13.1993 18.25 14.2775 18.25H19.5275C20.5587 18.25 21.3556 19.0938 21.3556 20.125V25.75H25.1056Z" fill="#F11284"/>
</svg>
