<svg width="80" height="48" viewBox="0 0 80 48" fill="none" xmlns="http://www.w3.org/2000/svg">
<path d="M35.8999 16.0137H35.6983L33.1374 7.78577H31.0015L34.1655 17.3984H37.4311L40.5952 7.78577H38.4593L35.8999 16.0137Z" fill="white"/>
<path d="M50.2282 15.0568C50.2282 14.6495 50.2282 13.9374 50.2282 11.1868C50.2282 8.84526 48.7376 7.5 46.197 7.5C43.9001 7.5 42.4485 8.58 42.186 10.4732H44.2017C44.3423 9.65842 45.0892 9.21 46.197 9.21C47.4673 9.21 48.2126 9.90316 48.2126 11.1442V11.6526H45.2704C43.2548 11.6526 41.7642 12.8132 41.7642 14.5847C41.7642 16.3563 43.2548 17.6811 45.2704 17.6811C46.6407 17.6811 47.7095 17.07 48.3735 16.0105H48.5751C48.5751 16.8868 49.1188 17.3953 50.047 17.3953H51.5782V15.7042H50.8735C50.4095 15.7089 50.2282 15.5242 50.2282 15.0568ZM45.6938 16.0342C44.3845 16.0342 43.7798 15.3221 43.7798 14.5674C43.7798 13.7732 44.4845 13.2442 45.4923 13.2442H48.2079C48.1579 14.9716 47.2048 16.0342 45.6938 16.0342Z" fill="white"/>
<path d="M15.5437 16.0137H15.3421L11.8562 7.78577H8.0874V17.3984H10.103V9.1705H10.3046L13.7905 17.3984H17.5593V7.78577H15.5437V16.0137Z" fill="white"/>
<path d="M24.8955 7.50165C21.9736 7.50165 19.958 9.59849 19.958 12.5938C19.958 15.589 21.9736 17.6859 24.8955 17.6859C27.8174 17.6859 29.8533 15.5874 29.8533 12.5938C29.8533 9.60007 27.8174 7.50165 24.8955 7.50165ZM24.8955 15.8717C23.2033 15.8717 22.0127 14.528 22.0127 12.5922C22.0127 10.658 23.2018 9.3127 24.8955 9.3127C26.608 9.3127 27.7971 10.6564 27.7971 12.5922C27.7971 14.5264 26.608 15.8717 24.8955 15.8717Z" fill="white"/>
<path d="M59.3531 22.9816V0.315796H0.3125V47.5342H79.6V22.9816H59.3531ZM2.17969 2.20264H57.4859V22.9816H2.17969V2.20264ZM77.7328 45.6474H2.17969V24.8684H77.7328V45.6474Z" fill="white"/>
<path d="M34.464 31.98C35.7343 31.98 36.7608 32.7331 36.9827 33.8337H39.0577C38.7358 31.6342 36.8812 30.1674 34.4624 30.1674C31.5405 30.1674 29.5249 32.2658 29.5249 35.2595C29.5249 38.2531 31.5405 40.3516 34.4624 40.3516C36.8812 40.3516 38.7343 38.8847 39.0577 36.6853H36.9843C36.7624 37.7858 35.7343 38.5389 34.4655 38.5389C32.7718 38.5389 31.5827 37.1953 31.5827 35.2595C31.5827 33.3237 32.7718 31.98 34.464 31.98Z" fill="white"/>
<path d="M65.5814 34.3216C63.5658 34.3216 62.0752 35.4821 62.0752 37.2537C62.0752 39.0253 63.5658 40.35 65.5814 40.35C66.9517 40.35 68.0205 39.739 68.6846 38.6795H68.8861C68.8861 39.5558 69.4299 40.0642 70.358 40.0642H71.9502V38.3732H71.1846C70.7205 38.3732 70.5393 38.19 70.5393 37.7211C70.5393 37.3137 70.5393 36.6016 70.5393 33.8511C70.5393 31.5095 69.0486 30.1642 66.508 30.1642C64.2111 30.1642 62.7596 31.2442 62.4971 33.1374H64.5127C64.6533 32.3432 65.3799 31.8948 66.508 31.8948C67.7783 31.8948 68.5236 32.5879 68.5236 33.8085V34.3169H65.5814V34.3216ZM66.0049 38.7C64.6955 38.7 64.0908 37.9879 64.0908 37.2332C64.0908 36.439 64.7955 35.91 65.8033 35.91H68.5189C68.4689 37.6374 67.5158 38.7 66.0049 38.7Z" fill="white"/>
<path d="M45.9326 30.1674C43.0107 30.1674 40.9951 32.2658 40.9951 35.2595C40.9951 38.2531 43.0107 40.3516 45.9326 40.3516C48.8545 40.3516 50.8904 38.2531 50.8904 35.2595C50.8904 32.2642 48.8545 30.1674 45.9326 30.1674ZM45.9326 38.5374C44.2389 38.5374 43.0498 37.1937 43.0498 35.2579C43.0498 33.3237 44.2389 31.9784 45.9326 31.9784C47.6451 31.9784 48.8342 33.3221 48.8342 35.2579C48.8342 37.1937 47.6451 38.5374 45.9326 38.5374Z" fill="white"/>
<path d="M21.6874 32.9574C21.6874 32.2642 22.3733 31.7968 23.4812 31.7968C24.6499 31.7968 25.2952 32.3053 25.3952 33.1405H27.4108C27.2093 31.3074 25.7171 30.1674 23.4812 30.1674C21.1843 30.1674 19.7327 31.2474 19.7327 33.0789C19.7327 36.8053 25.7983 35.2784 25.7983 37.4574C25.7983 38.231 25.0327 38.7205 23.7218 38.7205C22.2905 38.7205 21.4843 38.1505 21.3843 37.2331H19.3687C19.5093 39.1468 21.1421 40.3484 23.7218 40.3484C26.1608 40.3484 27.753 39.2684 27.753 37.3342C27.753 33.5684 21.6874 35.0542 21.6874 32.9574Z" fill="white"/>
<path d="M55.3032 30.4516H53.2876V38.2927V40.0642H55.3032H60.322V38.2927H55.3032V30.4516Z" fill="white"/>
<path d="M12.7593 30.1674C9.9374 30.1674 7.9624 32.2247 7.9624 35.2989C7.9624 38.3747 9.91709 40.35 12.8796 40.35C15.1374 40.35 16.7686 39.1895 17.2936 37.2347H15.2186C15.0171 38.0495 14.1108 38.5989 12.9218 38.5989C11.2827 38.5989 10.1686 37.5774 9.98896 35.91H17.3968C17.4374 35.5847 17.4577 35.2989 17.4577 35.0131C17.4546 32.2231 15.5812 30.1674 12.7593 30.1674ZM12.7593 31.9184C14.2937 31.9184 15.2358 32.7979 15.364 34.26H10.0187C10.2577 32.7821 11.2296 31.9184 12.7593 31.9184Z" fill="white"/>
</svg>
