<svg width="100" height="60" viewBox="0 0 100 60" fill="none" xmlns="http://www.w3.org/2000/svg">
<path d="M44.875 20.0171H44.623L41.4219 9.73224H38.752L42.707 21.748H46.7891L50.7441 9.73224H48.0742L44.875 20.0171Z" fill="white"/>
<path d="M62.7851 18.8211C62.7851 18.3118 62.7851 17.4217 62.7851 13.9836C62.7851 11.0566 60.9219 9.375 57.7461 9.375C54.875 9.375 53.0605 10.725 52.7324 13.0914H55.252C55.4277 12.073 56.3613 11.5125 57.7461 11.5125C59.334 11.5125 60.2656 12.3789 60.2656 13.9303V14.5658H56.5879C54.0684 14.5658 52.2051 16.0164 52.2051 18.2309C52.2051 20.4454 54.0684 22.1013 56.5879 22.1013C58.3008 22.1013 59.6367 21.3375 60.4668 20.0132H60.7187C60.7187 21.1086 61.3984 21.7441 62.5586 21.7441H64.4727V19.6303H63.5918C63.0117 19.6362 62.7851 19.4053 62.7851 18.8211ZM57.1172 20.0428C55.4805 20.0428 54.7246 19.1526 54.7246 18.2092C54.7246 17.2164 55.6055 16.5553 56.8652 16.5553H60.2598C60.1973 18.7145 59.0059 20.0428 57.1172 20.0428Z" fill="white"/>
<path d="M19.4297 20.0171H19.1777L14.8203 9.73224H10.1094V21.748H12.6289V11.4632H12.8809L17.2383 21.748H21.9492V9.73224H19.4297V20.0171Z" fill="white"/>
<path d="M31.1191 9.37701C27.4668 9.37701 24.9473 11.9981 24.9473 15.7421C24.9473 19.4862 27.4668 22.1073 31.1191 22.1073C34.7715 22.1073 37.3164 19.4843 37.3164 15.7421C37.3164 12 34.7715 9.37701 31.1191 9.37701ZM31.1191 19.8395C29.0039 19.8395 27.5156 18.1599 27.5156 15.7402C27.5156 13.3224 29.0019 11.6408 31.1191 11.6408C33.2598 11.6408 34.7461 13.3204 34.7461 15.7402C34.7461 18.1579 33.2598 19.8395 31.1191 19.8395Z" fill="white"/>
<path d="M74.1914 28.727V0.394745H0.390625V59.4178H99.5V28.727H74.1914ZM2.72461 2.7533H71.8574V28.727H2.72461V2.7533ZM97.166 57.0592H2.72461V31.0855H97.166V57.0592Z" fill="white"/>
<path d="M43.0801 39.975C44.668 39.975 45.9512 40.9165 46.2285 42.2921H48.8223C48.4199 39.5428 46.1016 37.7092 43.0781 37.7092C39.4258 37.7092 36.9062 40.3323 36.9062 44.0744C36.9062 47.8165 39.4258 50.4395 43.0781 50.4395C46.1016 50.4395 48.418 48.6059 48.8223 45.8566H46.2305C45.9531 47.2323 44.668 48.1737 43.082 48.1737C40.9648 48.1737 39.4785 46.4941 39.4785 44.0744C39.4785 41.6546 40.9648 39.975 43.0801 39.975Z" fill="white"/>
<path d="M81.9766 42.902C79.457 42.902 77.5938 44.3526 77.5938 46.5671C77.5938 48.7816 79.457 50.4375 81.9766 50.4375C83.6894 50.4375 85.0254 49.6737 85.8555 48.3493H86.1074C86.1074 49.4447 86.7871 50.0803 87.9473 50.0803H89.9375V47.9664H88.9805C88.4004 47.9664 88.1738 47.7375 88.1738 47.1513C88.1738 46.6421 88.1738 45.752 88.1738 42.3138C88.1738 39.3868 86.3105 37.7053 83.1348 37.7053C80.2637 37.7053 78.4492 39.0553 78.1211 41.4217H80.6406C80.8164 40.4289 81.7246 39.8684 83.1348 39.8684C84.7227 39.8684 85.6543 40.7349 85.6543 42.2605V42.896H81.9766V42.902ZM82.5059 48.375C80.8691 48.375 80.1133 47.4849 80.1133 46.5414C80.1133 45.5487 80.9941 44.8875 82.2539 44.8875H85.6484C85.5859 47.0467 84.3945 48.375 82.5059 48.375Z" fill="white"/>
<path d="M57.416 37.7092C53.7637 37.7092 51.2441 40.3323 51.2441 44.0744C51.2441 47.8165 53.7637 50.4395 57.416 50.4395C61.0684 50.4395 63.6133 47.8165 63.6133 44.0744C63.6133 40.3303 61.0684 37.7092 57.416 37.7092ZM57.416 48.1717C55.2988 48.1717 53.8125 46.4921 53.8125 44.0724C53.8125 41.6546 55.2988 39.973 57.416 39.973C59.5566 39.973 61.043 41.6526 61.043 44.0724C61.043 46.4921 59.5566 48.1717 57.416 48.1717Z" fill="white"/>
<path d="M27.1094 41.1967C27.1094 40.3303 27.9668 39.7461 29.3516 39.7461C30.8125 39.7461 31.6191 40.3816 31.7441 41.4257H34.2637C34.0117 39.1342 32.1465 37.7092 29.3516 37.7092C26.4805 37.7092 24.666 39.0592 24.666 41.3487C24.666 46.0066 32.248 44.098 32.248 46.8217C32.248 47.7888 31.291 48.4007 29.6523 48.4007C27.8633 48.4007 26.8555 47.6882 26.7305 46.5415H24.2109C24.3867 48.9336 26.4277 50.4355 29.6523 50.4355C32.7012 50.4355 34.6914 49.0855 34.6914 46.6678C34.6914 41.9605 27.1094 43.8178 27.1094 41.1967Z" fill="white"/>
<path d="M69.1289 38.0645H66.6094V47.8658V50.0803H69.1289H75.4023V47.8658H69.1289V38.0645Z" fill="white"/>
<path d="M15.9492 37.7092C12.4219 37.7092 9.95312 40.2809 9.95312 44.1237C9.95312 47.9684 12.3965 50.4375 16.0996 50.4375C18.9219 50.4375 20.9609 48.9869 21.6172 46.5434H19.0234C18.7715 47.5619 17.6387 48.2487 16.1523 48.2487C14.1035 48.2487 12.7109 46.9717 12.4863 44.8875H21.7461C21.7969 44.4809 21.8223 44.1237 21.8223 43.7665C21.8184 40.279 19.4766 37.7092 15.9492 37.7092ZM15.9492 39.898C17.8672 39.898 19.0449 40.9974 19.2051 42.825H12.5234C12.8223 40.9777 14.0371 39.898 15.9492 39.898Z" fill="white"/>
</svg>
