<svg width="32" height="32" viewBox="0 0 32 32" fill="none" xmlns="http://www.w3.org/2000/svg">
<path d="M3 8.25C2.4375 8.25 2 7.8125 2 7.25V4.75C2 4.25 2.4375 3.75 3 3.75H29C29.5 3.75 30 4.25 30 4.75V7.25C30 7.8125 29.5 8.25 29 8.25H3ZM3 18.25C2.4375 18.25 2 17.8125 2 17.25V14.75C2 14.25 2.4375 13.75 3 13.75H29C29.5 13.75 30 14.25 30 14.75V17.25C30 17.8125 29.5 18.25 29 18.25H3ZM3 28.25C2.4375 28.25 2 27.8125 2 27.25V24.75C2 24.25 2.4375 23.75 3 23.75H29C29.5 23.75 30 24.25 30 24.75V27.25C30 27.8125 29.5 28.25 29 28.25H3Z" fill="white"/>
</svg>
