<svg width="19" height="17" viewBox="0 0 19 17" fill="none" xmlns="http://www.w3.org/2000/svg">
<path d="M6.75 15.2812C6.75 15.7734 6.36328 16.125 5.90625 16.125H3.375C1.47656 16.125 0 14.6484 0 12.75V3.75C0 1.88672 1.47656 0.375 3.375 0.375H5.90625C6.36328 0.375 6.75 0.761719 6.75 1.21875C6.75 1.71094 6.36328 2.0625 5.90625 2.0625H3.375C2.42578 2.0625 1.6875 2.83594 1.6875 3.75V12.75C1.6875 13.6992 2.42578 14.4375 3.375 14.4375H5.90625C6.36328 14.4375 6.75 14.8242 6.75 15.2812ZM17.7539 7.6875C18.0703 8.00391 18.0703 8.53125 17.7539 8.84766L13.2539 13.6289C13.0781 13.8047 12.8672 13.875 12.6211 13.875C12.4453 13.875 12.2344 13.8047 12.0586 13.6641C11.707 13.3477 11.707 12.8203 12.0234 12.4688L15.1875 9.09375H6.43359C5.97656 9.09375 5.625 8.74219 5.625 8.25C5.625 7.79297 5.97656 7.40625 6.43359 7.40625H15.1875L12.0234 4.06641C11.707 3.71484 11.707 3.1875 12.0586 2.87109C12.4102 2.55469 12.9375 2.55469 13.2539 2.90625L17.7539 7.6875Z" fill="white"/>
</svg>
