<svg width="32" height="32" viewBox="0 0 32 32" fill="none" xmlns="http://www.w3.org/2000/svg">
<path d="M16 1C24.25 1 31 7.75 31 16C31 24.3125 24.25 31 16 31C7.6875 31 1 24.3125 1 16C1 7.75 7.6875 1 16 1ZM16 28C18.75 28 21.25 27.0625 23.25 25.5C22 24 20.125 23 18 23H14C11.8125 23 9.9375 24 8.625 25.5C10.6875 27.0625 13.1875 28 16 28ZM25.4375 23.375C27 21.375 28 18.8125 28 16C28 9.4375 22.5625 4 16 4C9.375 4 4 9.4375 4 16C4 18.8125 4.9375 21.375 6.5 23.375C8.3125 21.3125 11 20 14 20H18C20.9375 20 23.625 21.3125 25.4375 23.375ZM16 7C19 7 21.5 9.5 21.5 12.5C21.5 15.5625 19 18 16 18C12.9375 18 10.5 15.5625 10.5 12.5C10.5 9.5 12.9375 7 16 7ZM16 15C17.375 15 18.5 13.9375 18.5 12.5C18.5 11.125 17.375 10 16 10C14.5625 10 13.5 11.125 13.5 12.5C13.5 13.9375 14.5625 15 16 15Z" fill="white"/>
</svg>
