<svg width="26" height="24" viewBox="0 0 26 24" fill="none" xmlns="http://www.w3.org/2000/svg">
<path d="M20.7775 24C19.4181 24 18.1525 23.3906 17.2618 22.2656C15.9962 20.5781 16.09 18.375 17.5431 16.7344L22.1837 11.2969C22.7462 10.6875 22.7462 9.79688 22.2306 9.23438C21.9493 8.95312 21.5743 8.8125 21.1993 8.8125C20.7775 8.8125 20.4493 8.95312 20.1681 9.23438L8.73059 21.375C8.02747 22.0781 6.99622 22.5 6.05872 22.4531C5.07434 22.4531 4.13684 22.0312 3.43372 21.3281C2.07434 19.875 2.07434 17.625 3.48059 16.2188L13.5587 5.85938C14.3087 5.0625 14.2618 3.75 13.465 2.90625C13.0431 2.48438 12.4337 2.25 11.8712 2.29688C11.2618 2.29688 10.6993 2.53125 10.2775 3L2.77747 10.3594C2.35559 10.7812 1.65247 10.7812 1.18372 10.3594C0.761841 9.89062 0.761841 9.1875 1.23059 8.76562L8.68372 1.40625C9.48059 0.5625 10.6056 0.046875 11.8243 0.046875C12.9962 0 14.1681 0.46875 15.0587 1.3125C16.6993 3 16.7931 5.67188 15.1993 7.40625L5.07434 17.7656C4.55872 18.3281 4.55872 19.2188 5.07434 19.7812C5.35559 20.0625 5.68372 20.2031 6.10559 20.2031C6.48059 20.2031 6.85559 20.0625 7.13684 19.7812L18.5275 7.6875C19.2775 6.9375 20.2618 6.51562 21.1993 6.5625C22.2306 6.5625 23.1681 6.98438 23.8712 7.6875C25.2306 9.14062 25.2306 11.3438 23.8712 12.7969L19.2306 18.2344C18.1056 19.4531 18.8087 20.5781 19.0431 20.9062C19.6056 21.6094 20.6368 22.0781 21.715 21.5625L23.2618 20.8125C23.8243 20.5312 24.5275 20.8125 24.7618 21.375C25.0431 21.9375 24.8087 22.5938 24.2462 22.875L22.6993 23.5781C22.09 23.8594 21.4337 24 20.7775 24Z" fill="#F11284"/>
</svg>
