<svg width="16" height="16" viewBox="0 0 16 16" fill="none" xmlns="http://www.w3.org/2000/svg">
<path d="M7.29341 1.29297C7.68404 0.902344 8.31841 0.902344 8.70904 1.29297L12.709 5.29297C12.9965 5.58047 13.0809 6.00859 12.9247 6.38359C12.7684 6.75859 12.4059 7.00234 11.9997 7.00234H3.99966C3.59654 7.00234 3.23091 6.75859 3.07466 6.38359C2.91841 6.00859 3.00591 5.58047 3.29029 5.29297L7.29029 1.29297H7.29341ZM7.29341 14.7086L3.29341 10.7086C3.00591 10.4211 2.92154 9.99297 3.07779 9.61797C3.23404 9.24297 3.59654 8.99922 4.00279 8.99922H11.9997C12.4028 8.99922 12.7684 9.24297 12.9247 9.61797C13.0809 9.99297 12.9934 10.4211 12.709 10.7086L8.70904 14.7086C8.31841 15.0992 7.68404 15.0992 7.29341 14.7086Z" fill="#202020"/>
</svg>
