<svg width="18" height="16" viewBox="0 0 18 16" fill="none" xmlns="http://www.w3.org/2000/svg">
<path d="M14.25 16C13.3438 16 12.5 15.5938 11.9062 14.8438C11.0625 13.7188 11.125 12.25 12.0938 11.1562L15.1875 7.53125C15.5625 7.125 15.5625 6.53125 15.2188 6.15625C15.0312 5.96875 14.7812 5.875 14.5312 5.875C14.25 5.875 14.0312 5.96875 13.8438 6.15625L6.21875 14.25C5.75 14.7188 5.0625 15 4.4375 14.9688C3.78125 14.9688 3.15625 14.6875 2.6875 14.2188C1.78125 13.25 1.78125 11.75 2.71875 10.8125L9.4375 3.90625C9.9375 3.375 9.90625 2.5 9.375 1.9375C9.09375 1.65625 8.6875 1.5 8.3125 1.53125C7.90625 1.53125 7.53125 1.6875 7.25 2L2.25 6.90625C1.96875 7.1875 1.5 7.1875 1.1875 6.90625C0.90625 6.59375 0.90625 6.125 1.21875 5.84375L6.1875 0.9375C6.71875 0.375 7.46875 0.03125 8.28125 0.03125C9.0625 0 9.84375 0.3125 10.4375 0.875C11.5312 2 11.5938 3.78125 10.5312 4.9375L3.78125 11.8438C3.4375 12.2188 3.4375 12.8125 3.78125 13.1875C3.96875 13.375 4.1875 13.4688 4.46875 13.4688C4.71875 13.4688 4.96875 13.375 5.15625 13.1875L12.75 5.125C13.25 4.625 13.9062 4.34375 14.5312 4.375C15.2188 4.375 15.8438 4.65625 16.3125 5.125C17.2188 6.09375 17.2188 7.5625 16.3125 8.53125L13.2188 12.1562C12.4688 12.9688 12.9375 13.7188 13.0938 13.9375C13.4688 14.4062 14.1562 14.7188 14.875 14.375L15.9062 13.875C16.2812 13.6875 16.75 13.875 16.9062 14.25C17.0938 14.625 16.9375 15.0625 16.5625 15.25L15.5312 15.7188C15.125 15.9062 14.6875 16 14.25 16Z" fill="white"/>
</svg>
