<svg width="39" height="38" viewBox="0 0 39 38" fill="none" xmlns="http://www.w3.org/2000/svg">
<path d="M19.5 0.25C29.8125 0.25 38.25 8.6875 38.25 19C38.25 29.3906 29.8125 37.75 19.5 37.75C9.10938 37.75 0.75 29.3906 0.75 19C0.75 8.6875 9.10938 0.25 19.5 0.25ZM19.5 34C27.7031 34 34.5 27.2812 34.5 19C34.5 10.7969 27.7031 4 19.5 4C11.2188 4 4.5 10.7969 4.5 19C4.5 27.2812 11.2188 34 19.5 34ZM25.6719 12.75C26.375 11.9688 27.5469 11.9688 28.25 12.75C29.0312 13.4531 29.0312 14.625 28.25 15.3281L18.25 25.3281C17.9375 25.7188 17.4688 25.875 17 25.875C16.4531 25.875 15.9844 25.7188 15.6719 25.3281L10.6719 20.3281C9.89062 19.625 9.89062 18.4531 10.6719 17.75C11.375 16.9688 12.5469 16.9688 13.25 17.75L17 21.4219L25.6719 12.75Z" fill="#068A13"/>
</svg>
