<svg width="48" height="36" viewBox="0 0 48 28" fill="none" xmlns="http://www.w3.org/2000/svg">
<path d="M28.5 8.25C28.5 12.8438 24.0938 16.5 18.75 16.5C17.8594 16.5 17.0156 16.4062 16.1719 16.2188C14.7656 17.1094 12.7031 18 10.125 18C9.65625 18 9.23438 17.7656 9.09375 17.2969C8.90625 16.875 8.95312 16.4062 9.28125 16.0312C9.32812 16.0312 10.3594 14.9062 11.1094 13.4062C9.79688 12 9 10.2188 9 8.25C9 3.70312 13.3594 0 18.75 0C24.0938 0 28.5 3.70312 28.5 8.25ZM18.75 14.25C22.875 14.25 26.25 11.5781 26.25 8.25C26.25 4.96875 22.875 2.25 18.75 2.25C14.5781 2.25 11.25 4.96875 11.25 8.25C11.25 9.9375 12.0469 11.1562 12.75 11.8594L13.875 13.0312L13.125 14.4844C12.9375 14.7656 12.75 15.0938 12.5625 15.4219C13.4062 15.1875 14.2031 14.8125 15 14.2969L15.7969 13.8281L16.6875 14.0156C17.3906 14.2031 18.0469 14.25 18.75 14.25ZM37.0781 20.8125C37.8281 22.3125 38.8594 23.3906 38.8594 23.4375C39 23.5312 39 23.6719 38.9531 23.8125C38.9062 23.9531 38.7656 24 38.625 24C36.9375 24 35.4844 23.5781 34.3125 23.0156C33.0469 23.625 31.5469 24 30 24C25.7344 24 22.2188 21.375 21.2344 17.7656C26.25 16.7812 30 12.8906 30 8.25C30 8.01562 29.9531 7.78125 29.9531 7.54688C29.9531 7.54688 29.9531 7.5 30 7.5C34.9688 7.5 39 11.2031 39 15.75C39 17.6719 38.25 19.4062 37.0781 20.8125Z" fill="#282828"/>
</svg>

