<svg width="24" height="24" viewBox="0 0 24 24" fill="none" xmlns="http://www.w3.org/2000/svg">
<path d="M21.75 3.75C22.125 3.75 22.5 4.125 22.5 4.5V5.25C22.5 5.67188 22.125 6 21.75 6H21V21C21 22.6875 19.6406 24 18 24H6C4.3125 24 3 22.6875 3 21V6H2.25C1.82812 6 1.5 5.67188 1.5 5.25V4.5C1.5 4.125 1.82812 3.75 2.25 3.75H6.09375L7.6875 1.125C8.10938 0.421875 8.8125 0 9.60938 0H14.3438C15.1406 0 15.8438 0.421875 16.2656 1.125L17.8594 3.75H21.75ZM9.51562 2.39062L8.71875 3.75H15.2344L14.4375 2.39062C14.3906 2.34375 14.2969 2.25 14.2031 2.25H9.79688C9.65625 2.25 9.5625 2.34375 9.51562 2.39062ZM18 21.75C18.375 21.75 18.75 21.4219 18.75 21V6H5.25V21C5.25 21.4219 5.57812 21.75 6 21.75H18ZM12 19.5C11.5781 19.5 11.25 19.1719 11.25 18.75V9C11.25 8.625 11.5781 8.25 12 8.25C12.375 8.25 12.75 8.625 12.75 9V18.75C12.75 19.1719 12.375 19.5 12 19.5ZM8.25 19.5C7.82812 19.5 7.5 19.1719 7.5 18.75V9C7.5 8.625 7.82812 8.25 8.25 8.25C8.625 8.25 9 8.625 9 9V18.75C9 19.1719 8.625 19.5 8.25 19.5ZM15.75 19.5C15.3281 19.5 15 19.1719 15 18.75V9C15 8.625 15.3281 8.25 15.75 8.25C16.125 8.25 16.5 8.625 16.5 9V18.75C16.5 19.1719 16.125 19.5 15.75 19.5Z" fill="#F40C0C"/>
</svg>
