<svg width="31" height="24" viewBox="0 0 31 24" fill="none" xmlns="http://www.w3.org/2000/svg">
<path d="M15.8556 15C13.1837 15 10.9806 12.8438 10.9806 10.125C10.9806 7.45312 13.1837 5.25 15.8556 5.25C18.5743 5.25 20.7306 7.45312 20.7306 10.125C20.7306 12.8438 18.5743 15 15.8556 15ZM15.8556 7.5C14.4493 7.5 13.2306 8.71875 13.2306 10.125C13.2306 11.5781 14.4493 12.75 15.8556 12.75C17.3087 12.75 18.4806 11.5781 18.4806 10.125C18.4806 8.71875 17.3087 7.5 15.8556 7.5ZM24.9025 7.5C22.7931 7.5 21.1525 5.85938 21.1525 3.75C21.1525 1.6875 22.7931 0 24.9025 0C26.965 0 28.6525 1.6875 28.6525 3.75C28.6525 5.85938 26.965 7.5 24.9025 7.5ZM18.1993 16.5C21.9025 16.5 24.9025 19.3125 24.9025 22.7812C24.9025 23.4844 24.2931 24 23.5431 24H8.21497C7.46497 24 6.90247 23.4844 6.90247 22.7812C6.90247 19.3125 9.85559 16.5 13.5587 16.5H18.1993ZM9.24622 21.75H22.5118C21.9962 20.0625 20.2618 18.75 18.1993 18.75H13.5587C11.4962 18.75 9.76184 20.0625 9.24622 21.75ZM26.7306 9C29.0275 9 30.9025 10.9688 30.9025 13.4062C30.9025 13.875 30.5275 14.25 30.0587 14.25H20.6837C21.6681 13.1719 22.2306 11.7188 22.2306 10.125C22.2306 9.89062 22.1837 9.65625 22.1837 9.42188C22.6993 9.1875 23.2618 9 23.8712 9H26.7306ZM9.48059 10.125C9.48059 11.7188 10.09 13.1719 11.0743 14.25H1.69934C1.23059 14.25 0.902466 13.875 0.902466 13.4062C0.902466 10.9688 2.73059 9 5.02747 9H7.88684C8.49622 9 9.05872 9.14062 9.57434 9.42188C9.52747 9.65625 9.48059 9.89062 9.48059 10.125ZM6.90247 7.5C4.79309 7.5 3.15247 5.85938 3.15247 3.75C3.15247 1.6875 4.79309 0 6.90247 0C8.96497 0 10.6525 1.6875 10.6525 3.75C10.6525 5.85938 8.96497 7.5 6.90247 7.5Z" fill="#F11284"/>
</svg>
